<svg width="31" height="31" viewBox="0 0 31 31" fill="none" xmlns="http://www.w3.org/2000/svg">
<path fill-rule="evenodd" clip-rule="evenodd" d="M0 0H25.8333V6.42038H31V31H5.16667V25.8333H0V0ZM7.75 25.8333V28.4167H28.4167V9.00371H25.8333V25.8333H7.75ZM2.58333 2.58333V21.2324L8.95487 13.5865L12.8096 17.4412L18.0629 10.8745L23.25 17.099V2.58333H2.58333ZM23.25 21.1343L18.1038 14.9588L13.0238 21.3088L9.12847 17.4135L4.2647 23.25H23.25V21.1343ZM5.16667 9.04167C5.16667 7.61493 6.32326 6.45833 7.75 6.45833C9.17674 6.45833 10.3333 7.61493 10.3333 9.04167C10.3333 10.4684 9.17674 11.625 7.75 11.625C6.32326 11.625 5.16667 10.4684 5.16667 9.04167Z" fill="white"/>
</svg>
